www.brazukas.org

Resident.Evil.Apocalypse.2004.1080p.BluRay.AC3

Poster: http://i.imgur.com/7LrQK.jpg

IMDB: http://www.imdb.com/title/tt0318627/

Format                           : Matroska
File size                        : 7.95 GiB
Duration                         : 1h 33mn
Overall bit rate                 : 12.1 Mbps
Encoded date                     : UTC 2007-08-04 14:52:16
Writing application              : mkvmerge v2.0.2 ('You're My Flame') built on Feb 21 2007 23:40:55
Writing library                  : libebml v0.7.7 + libmatroska v0.8.1

Video
ID                               : 1
Format                           : AVC
Format/Info                      : Advanced Video Codec
Format profile                   : High@L5.1
Format settings, CABAC           : Yes
Format settings, ReFrames        : 8 frames
Codec ID                         : V_MPEG4/ISO/AVC
Duration                         : 1h 33mn
Bit rate                         : 11.5 Mbps
Width                            : 1 920 pixels
Height                           : 800 pixels
Display aspect ratio             : 2.40:1
Frame rate                       : 23.976 fps
Color space                      : YUV
Chroma subsampling               : 4:2:0
Bit depth                        : 8 bits
Scan type                        : Progressive
Bits/(Pixel*Frame)               : 0.312
Stream size                      : 7.37 GiB (93%)
Writing library                  : x264 core 56 svn-667C
Encoding settings                : cabac=1 / ref=5 / deblock=1:-2:-2 / analyse=0x3:0x133 / me=umh / subme=7 / brdo=1 / mixed_ref=1 / me_range=16 / chroma_me=1 / trellis=1 / 8x8dct=1 / cqm=0 / deadzone=21,11 / chroma_qp_offset=0 / threads=3 / nr=0 / decimate=1 / mbaff=0 / bframes=3 / b_pyramid=1 / b_adapt=1 / b_bias=0 / direct=3 / wpredb=1 / bime=1 / keyint=240 / keyint_min=24 / scenecut=40(pre) / rc=2pass / bitrate=11484 / ratetol=1.0 / rceq='blurCplx^(1-qComp)' / qcomp=0.60 / qpmin=10 / qpmax=51 / qpstep=4 / cplxblur=20.0 / qblur=0.5 / ip_ratio=1.40 / pb_ratio=1.30
Language                         : English

Audio
ID                               : 2
Format                           : AC-3
Format/Info                      : Audio Coding 3
Mode extension                   : CM (complete main)
Codec ID                         : A_AC3
Duration                         : 1h 33mn
Bit rate mode                    : Constant
Bit rate                         : 640 Kbps
Channel(s)                       : 6 channels
Channel positions                : Front: L C R, Side: L R, LFE
Sampling rate                    : 48.0 KHz
Bit depth                        : 16 bits
Compression mode                 : Lossy
Stream size                      : 429 MiB (5%)
Language                         : English

Screens:
[shot]http://i.imgur.com/mQGQL.jpg[/shot][shot]http://i.imgur.com/M6han.jpg[/shot][shot]http://i.imgur.com/YRTKE.jpg[/shot][shot]http://i.imgur.com/yyYN5.jpg[/shot]
[shot]http://i.imgur.com/4IJQZ.jpg[/shot][shot]http://i.imgur.com/TqohY.jpg[/shot][shot]http://i.imgur.com/S6l6O.jpg[/shot][shot]http://i.imgur.com/RjamO.jpg[/shot]

www.brazukas.org